<svg width="54" height="54" viewBox="0 0 54 54" fill="none" xmlns="http://www.w3.org/2000/svg">
<path d="M27 0C12.1122 0 0 11.9328 0 26.6C0 41.2672 12.1122 53.2 27 53.2C41.8878 53.2 54 41.2672 54 26.6C54 11.9328 41.8878 0 27 0ZM14.5611 21.4263C13.857 23.0628 13.4961 24.8226 13.5 26.6H8.1C8.09693 24.1541 8.58459 21.7316 9.53494 19.472C10.4853 17.2123 11.8796 15.16 13.6377 13.433C15.3593 11.7326 17.3995 10.3776 19.6452 9.443L21.7485 14.3427C20.1393 15.013 18.6975 15.9706 17.4555 17.1942C16.2135 18.4178 15.2415 19.8409 14.5611 21.4263V21.4263ZM26.9811 31.92C25.5439 31.92 24.1656 31.3575 23.1494 30.3564C22.1331 29.3552 21.5622 27.9973 21.5622 26.5814C21.5622 25.1655 22.1331 23.8076 23.1494 22.8064C24.1656 21.8052 25.5439 21.2428 26.9811 21.2428C28.4183 21.2428 29.7966 21.8052 30.8128 22.8064C31.8291 23.8076 32.4 25.1655 32.4 26.5814C32.4 27.9973 31.8291 29.3552 30.8128 30.3564C29.7966 31.3575 28.4183 31.92 26.9811 31.92V31.92Z" fill="#EAEAEA"/>
</svg>
